<?xml version="1.0" standalone="no"?><!-- Generator: Gravit.io --><svg xmlns="http://www.w3.org/2000/svg" xmlns:xlink="http://www.w3.org/1999/xlink" style="isolation:isolate" viewBox="0 0 200 200" width="200" height="200"><defs><clipPath id="_clipPath_WfevZ7zg5BE4eP9KYqhsfv4wdfSVNUrP"><rect width="200" height="200"/></clipPath></defs><g clip-path="url(#_clipPath_WfevZ7zg5BE4eP9KYqhsfv4wdfSVNUrP)"><ellipse vector-effect="non-scaling-stroke" cx="104.50222222222222" cy="100" rx="94" ry="95" fill="rgb(0,0,0)" stroke-width="1" stroke="rgb(255,252,252)" stroke-linejoin="miter" stroke-linecap="square" stroke-miterlimit="3"/><path d=" M 53 63 L 126 63 C 124.314 65.005 122.538 67.117 120.672 69.338 C 118.179 72.304 115.526 75.462 112.713 78.812 C 111.831 79.862 110.934 80.931 110.021 82.018 C 107.365 85.182 104.576 88.505 101.653 91.989 C 100.021 93.933 98.348 95.928 96.633 97.972 C 95.376 99.47 94.096 100.996 92.794 102.548 C 90.444 105.35 88.021 108.238 85.525 111.214 C 82.3 115.059 78.955 119.048 75.487 123.183 C 68.487 131.53 60.992 140.469 53 150 L 156 150 C 156 141.333 156.01 142.677 156 138 L 86 138 L 156 50 L 156 50 L 53 50 L 53 63 Z " fill="rgb(255,255,255)" vector-effect="non-scaling-stroke" stroke-width="1" stroke="rgb(0,0,0)" stroke-linejoin="miter" stroke-linecap="square" stroke-miterlimit="3"/></g></svg>